<?xml version="1.0" standalone="no"?>
<!DOCTYPE svg PUBLIC "-//W3C//DTD SVG 20010904//EN"
 "http://www.w3.org/TR/2001/REC-SVG-20010904/DTD/svg10.dtd">
<svg version="1.0" xmlns="http://www.w3.org/2000/svg"
 width="340.000000pt" height="340.000000pt" viewBox="0 0 340.000000 340.000000"
 preserveAspectRatio="xMidYMid meet">
<metadata>
Created by potrace 1.11, written by Peter Selinger 2001-2013
</metadata>
<g transform="translate(0.000000,340.000000) scale(0.100000,-0.100000)"
fill="#000000" stroke="none">
<path d="M1171 3094 c-103 -17 -294 -80 -388 -127 -235 -119 -452 -322 -586
-549 -339 -573 -233 -1309 255 -1763 152 -141 317 -239 517 -305 149 -50 273
-70 437 -70 l131 0 6 122 c4 66 7 185 7 263 0 78 3 217 7 308 l6 167 73 0 72
0 6 -72 c3 -40 8 -226 11 -413 4 -187 8 -341 10 -344 17 -16 396 139 425 173
5 7 10 95 11 197 l1 184 -56 27 -56 28 0 66 c0 259 73 667 167 938 40 114 59
140 87 117 14 -12 16 -84 17 -670 0 -361 4 -678 7 -706 l7 -50 76 76 c181 179
320 425 375 659 l17 75 293 150 c161 82 291 152 289 155 -2 3 -136 73 -299
155 l-295 150 -32 99 c-100 309 -304 573 -584 755 -151 99 -346 175 -524 205
-117 20 -372 20 -490 0z m327 -1056 c9 -9 12 -89 12 -299 0 -312 1 -318 55
-305 l25 6 0 289 c0 250 2 292 16 305 8 9 22 16 29 16 7 0 21 -7 29 -16 14
-13 16 -55 16 -305 l0 -289 25 -6 c54 -13 55 -6 55 298 0 173 4 287 10 299 11
20 45 25 70 9 16 -10 21 -89 35 -565 l8 -230 -28 -33 c-35 -42 -123 -88 -138
-73 -14 14 -150 14 -164 0 -15 -15 -103 31 -137 71 -24 30 -26 37 -25 133 0
56 6 234 12 395 13 311 13 311 63 312 11 0 25 -5 32 -12z"/>
</g>
</svg>
